<svg
    viewBox="0 0 12 13"
    width="20"
    height="20"
    fill="#000"
    className="x19dipnz x1lliihq"
>
    <g fillRule="evenodd" transform="translate(-450 -1073)">
        <g>
            <path
                d="m6.657 1-2.64 2.639A3.191 3.191 0 0 0 1 4.481L5.52 9a3.191 3.191 0 0 0 .84-3.018L9 3.344"
                transform="translate(354 143.5) translate(96.5 931.5)"
            ></path>
            <path
                fillRule="nonzero"
                d="M3.854 3.096A3.687 3.687 0 0 0 .647 4.127a.5.5 0 0 0 0 .707l4.52 4.52a.5.5 0 0 0 .706 0 3.687 3.687 0 0 0 1.03-3.207l2.45-2.45-.706-.707-2.64 2.639a.5.5 0 0 0-.132.472c.182.748.04 1.53-.388 2.159L1.74 4.513a2.697 2.697 0 0 1 2.16-.388.5.5 0 0 0 .471-.132l2.64-2.64-.708-.707-2.45 2.45z"
                transform="translate(354 143.5) translate(96.5 931.5)"
            ></path>
            <path
                d="m105.392 935.194-2.586-2.586a1.045 1.045 0 0 1 0-1.478l.555-.553a.26.26 0 0 1 .369 0l3.693 3.693a.26.26 0 0 1 0 .37l-.553.554a1.045 1.045 0 0 1-1.478 0"
                transform="translate(354 143.5)"
            ></path>
            <path
                fillRule="nonzero"
                d="m105.038 935.547-2.585-2.585a1.545 1.545 0 0 1 0-2.186l.553-.552a.76.76 0 0 1 1.077 0l3.693 3.692a.76.76 0 0 1 0 1.077l-.553.554a1.545 1.545 0 0 1-2.185 0zm-1.878-4.063a.545.545 0 0 0 0 .77l2.585 2.586a.545.545 0 0 0 .77 0l.386-.385-3.356-3.356-.385.385z"
                transform="translate(354 143.5)"
            ></path>
            <path
                d="M96.147 941.854a.5.5 0 0 1 0-.708l2.276-2.276a.25.25 0 0 1 .353 0l.354.353a.25.25 0 0 1 0 .354l-2.276 2.277a.5.5 0 0 1-.707 0"
                transform="translate(354 143.5)"
            ></path>
        </g>
    </g>
</svg>