<svg
    viewBox="0 0 12 13"
    width="20"
    height="20"
    fill="#000"
    className="x19dipnz x1lliihq"
>
    <g fill-rule="evenodd" transform="translate(-450 -1073)">
        <g>
            <path
                d="M106.97 927.5c1.023 0 1.03-1 1.03-1 .011-1.229-1.33-1.98-1.33-2.92l-.038-.884c-.145-1.81-1.497-3.196-3.132-3.196s-2.987 1.386-3.132 3.197l-.039.884c0 .938-1.34 1.69-1.329 2.919 0 0 .007 1 1.03 1h6.94z"
                transform="translate(352.5 155.5)"
            ></path>
            <path
                fill-rule="nonzero"
                d="M106.97 928c.64 0 1.097-.296 1.342-.77.14-.27.187-.53.188-.726.006-.618-.196-1.076-.663-1.737l-.356-.492-.057-.083-.067-.108c-.113-.185-.171-.328-.184-.452l-.042-.958c-.166-2.08-1.726-3.674-3.63-3.674-1.906 0-3.466 1.595-3.631 3.657l-.04.901c0 .138-.044.276-.142.45l-.084.14-.058.088-.286.395c-.536.737-.766 1.214-.76 1.874.002.195.048.455.188.725.245.474.702.77 1.342.77h6.94zm0-1h-6.94c-.255 0-.376-.079-.455-.23a.688.688 0 0 1-.075-.274c-.003-.356.132-.66.489-1.165l.296-.408.114-.166c.035-.052.067-.102.097-.151.193-.315.306-.605.329-.91l.043-.977c.124-1.546 1.272-2.719 2.632-2.719s2.508 1.173 2.633 2.736l.038.867c0 .327.116.649.333 1.003.045.074.094.149.151.232l.169.235.107.147c.418.574.573.895.57 1.276-.001.053-.022.169-.076.274-.079.151-.2.23-.455.23z"
                transform="translate(352.5 155.5)"
            ></path>
            <path
                d="M101.95 929a.203.203 0 0 0-.137.352c.434.4 1.03.648 1.687.648s1.253-.247 1.688-.648a.203.203 0 0 0-.138-.352h-3.1zm2.55-10a1 1 0 1 1-2 0 1 1 0 0 1 2 0"
                transform="translate(352.5 155.5)"
            ></path>
        </g>
    </g>
</svg>