<svg
    viewBox="0 0 12 13"
    width="15"
    height="15"
    fill="#5B626A"
>
    <g fillRule="evenodd" transform="translate(-450 -1073)">
        <path
            d="m459.33 1076.878 2.524-2.525a.5.5 0 0 0-.707-.707l-2.323 2.323a3.606 3.606 0 0 0-1.838-1.322c.006-.048.014-.096.014-.147a1 1 0 0 0-2 0c0 .05.008.099.015.148-1.432.435-2.509 1.801-2.646 3.526l-.04.906c0 .273-.243.607-.502.96-.372.508-.834 1.14-.827 1.963.003.385.175.887.589 1.201l-1.442 1.442a.5.5 0 1 0 .707.707l1.853-1.853h.024l6.605-6.606-.007-.016m.141 6.622c1.115 0 1.526-.895 1.53-1.495.007-.824-.455-1.457-.827-1.965-.258-.353-.502-.686-.503-.981l-.04-.903c-.003-.043-.01-.083-.015-.126l-5.47 5.47h5.325zm-1.92 1h-3.1a.203.203 0 0 0-.138.352c.435.4 1.031.648 1.688.648s1.253-.247 1.687-.648a.204.204 0 0 0-.137-.352"></path>
    </g>
</svg>