<svg
    viewBox="0 0 12 13"
    width="20"
    height="20"
    fill="#000"
    className="x19dipnz x1lliihq x1k90msu x2h7rmj x1qfuztq"
>
    <g fillRule="evenodd" transform="translate(-450 -1073)">
        <g fillRule="nonzero">
            <path
                d="m104.609 929.891.103.106a4.75 4.75 0 1 1-.103-.106zm-1.155.97a3.25 3.25 0 1 0 .185.185l-.09-.094-.095-.09z"
                transform="translate(353.5 145)"
            ></path>
            <path
                d="M104.1 934.827c-.048.085-.11.211-.17.372a2.285 2.285 0 0 0-.147 1.107c.049.366.205.702.478.974a.75.75 0 0 0 1.112-1.003l-.052-.057a.173.173 0 0 1-.051-.112.87.87 0 0 1 .066-.385l.031-.078.032-.066a.75.75 0 1 0-1.298-.752z"
                transform="translate(353.5 145)"
            ></path>
            <path
                d="m103.617 937.38.066-.029.042-.016a.869.869 0 0 1 .385-.067.181.181 0 0 1 .087.03l.023.02a.75.75 0 0 0 1.06-1.06 1.664 1.664 0 0 0-.975-.477c-.379-.05-.75.015-1.107.149a2.52 2.52 0 0 0-.372.172.75.75 0 0 0 .624 1.356l.066-.026.1-.052z"
                transform="translate(353.5 145)"
            ></path>
            <path
                d="m106.608 940.169-.04-.044-2.889-3.388c-.599-.703.355-1.657 1.058-1.058l3.388 2.889.044.04c.055.055.114.128.17.222.23.394.23.895-.142 1.31l-.057.057a1.077 1.077 0 0 1-1.31.141 1.097 1.097 0 0 1-.222-.169zm1.03-1.03-.24.283-.318-.284c-.11.122-.11.326-.036.451a.387.387 0 0 0 .064.08l.561-.56a.387.387 0 0 0-.08-.065c-.125-.073-.33-.073-.451.036l.284.317-.283.242.5-.5z"
                transform="translate(353.5 145)"
            ></path>
        </g>
    </g>
</svg>