<svg
    viewBox="0 0 12 13"
    width="20"
    height="20"
    fill="#000"
    className="x19dipnz x1lliihq x1k90msu x2h7rmj x1qfuztq"
>
    <g fillRule="evenodd" transform="translate(-450 -1073)">
        <g>
            <path
                d="M104 923.75c-.69 0-1.25-.673-1.25-1.5 0-1.5.908-1.5 1.25-1.5.342 0 1.25 0 1.25 1.5 0 .827-.56 1.5-1.25 1.5"
                transform="translate(352 156)"
            ></path>
            <path
                d="M104 920c-1.428 0-2 1.008-2 2.25s.895 2.25 2 2.25 2-1.008 2-2.25-.572-2.25-2-2.25m0 1.5c.28 0 .5 0 .5.75 0 .429-.264.75-.5.75s-.5-.321-.5-.75c0-.75.22-.75.5-.75"
                transform="translate(352 156)"
            ></path>
            <path
                fillRule="nonzero"
                d="M110 923.5a6 6 0 1 1-12 0 6 6 0 0 1 12 0zm-1 0a5 5 0 1 0-10 0 5 5 0 0 0 10 0z"
                transform="translate(352 156)"
            ></path>
            <path
                fillRule="nonzero"
                d="M108.247 927.568c-.15-1.457-1.501-2.568-3.092-2.568h-2.31c-1.59 0-2.942 1.111-3.092 2.568l.994.103c.096-.927 1.001-1.67 2.098-1.67h2.31c1.097 0 2.002.743 2.098 1.67l.994-.103z"
                transform="translate(352 156)"
            ></path>
            <path
                d="M104 929c1.463 0 2.787-.528 3.75-1.38-.123-1.184-1.243-2.12-2.595-2.12h-2.31c-1.352 0-2.472.936-2.595 2.12.963.852 2.287 1.38 3.75 1.38"
                transform="translate(352 156)"
            ></path>
        </g>
    </g>
</svg>